<?xml version="1.0" standalone="no"?>
<!DOCTYPE svg PUBLIC "-//W3C//DTD SVG 20010904//EN"
 "http://www.w3.org/TR/2001/REC-SVG-20010904/DTD/svg10.dtd">
<svg version="1.0" xmlns="http://www.w3.org/2000/svg"
 width="500.000000pt" height="500.000000pt" viewBox="0 0 500.000000 500.000000"
 preserveAspectRatio="xMidYMid meet">

<g transform="translate(0.000000,500.000000) scale(0.100000,-0.100000)"
fill="#000000" stroke="none">
<path d="M1261 3474 l-31 -26 0 -948 0 -948 31 -26 31 -27 449 3 448 3 23 23
23 23 3 922 c1 507 0 937 -3 955 -4 23 -16 39 -38 52 -30 19 -53 20 -469 20
l-436 0 -31 -26z m941 -12 l23 -23 0 -939 0 -939 -23 -23 -23 -23 -417 -3
c-229 -2 -432 0 -450 3 -18 3 -42 15 -53 26 -19 19 -19 41 -19 953 0 514 3
942 6 951 17 42 47 45 501 42 l432 -2 23 -23z"/>
<path d="M1533 3440 c-15 -17 -30 -20 -116 -20 -91 0 -100 -2 -123 -25 l-24
-24 2 -767 3 -766 24 -19 c22 -18 44 -19 435 -19 l413 0 24 26 24 26 0 758 0
758 -24 26 c-23 25 -30 26 -125 26 -90 0 -103 2 -114 20 -11 19 -23 20 -197
20 -173 0 -186 -1 -202 -20z m0 -50 c16 -19 29 -20 197 -20 167 0 181 1 200
20 17 17 33 20 115 20 151 0 135 94 135 -800 0 -747 0 -760 -20 -780 -19 -19
-33 -20 -429 -20 l-410 0 -20 26 c-21 26 -21 33 -21 771 0 508 3 751 11 764
15 30 45 38 139 38 74 1 88 -2 103 -19z"/>
<path d="M1490 2560 l0 -240 45 0 45 0 0 78 0 79 188 6 c210 7 272 20 316 66
37 39 47 109 21 157 -38 71 -146 94 -442 94 l-173 0 0 -240z m508 126 c25 -13
32 -23 32 -46 0 -54 -37 -63 -257 -68 l-193 -4 0 72 0 73 193 -5 c155 -4 198
-8 225 -22z"/>
<path d="M1715 1752 c-51 -10 -80 -72 -59 -127 8 -19 55 -45 84 -45 32 0 80
53 80 87 0 53 -53 96 -105 85z m74 -38 c25 -32 26 -52 5 -82 -24 -35 -59 -45
-93 -27 -31 15 -41 33 -41 71 0 61 90 88 129 38z"/>
<path d="M2280 2560 l0 -240 40 0 39 0 3 108 3 107 40 0 40 0 3 -107 3 -108
39 0 40 0 0 240 0 240 -40 0 -39 0 -3 -87 -3 -88 -40 0 -40 0 -3 88 -3 87 -39
0 -40 0 0 -240z"/>
<path d="M2760 2783 c-25 -13 -43 -35 -64 -76 -26 -50 -29 -68 -29 -145 0
-140 48 -228 132 -239 37 -5 44 -2 80 34 48 48 65 102 65 208 0 163 -87 267
-184 218z m91 -147 c22 -81 -7 -226 -46 -226 -21 0 -46 55 -52 116 -6 59 10
140 34 167 15 16 17 16 35 0 10 -9 23 -35 29 -57z"/>
<path d="M3080 2561 l0 -241 45 0 45 0 1 113 0 112 43 -110 43 -110 47 -3 46
-3 -2 238 -3 238 -42 3 -42 3 -3 -113 -3 -113 -41 110 -42 110 -46 3 -46 3 0
-240z"/>
<path d="M3500 2560 l0 -240 110 0 110 0 0 45 0 45 -65 0 -65 0 0 65 0 65 45
0 45 0 0 40 0 40 -45 0 -45 0 0 45 0 45 65 0 65 0 0 45 0 45 -110 0 -110 0 0
-240z"/>
<path d="M2613 2186 c7 -21 36 -30 63 -21 47 17 39 32 -16 31 -27 -1 -49 -5
-47 -10z"/>
<path d="M2410 2150 c0 -22 -4 -40 -10 -40 -5 0 -10 -7 -10 -15 0 -8 5 -15 10
-15 6 0 10 -18 10 -40 l0 -40 40 0 c46 0 95 21 104 45 9 25 7 84 -4 105 -12
22 -60 40 -106 40 -33 0 -34 -1 -34 -40z m88 -6 c30 -21 30 -77 0 -98 -32 -23
-48 -20 -48 9 0 16 6 25 15 25 8 0 15 7 15 15 0 8 -7 15 -15 15 -9 0 -15 9
-15 25 0 29 16 32 48 9z"/>
<path d="M3230 2131 c0 -16 -6 -32 -12 -35 -10 -5 -10 -7 0 -12 6 -3 12 -23
12 -45 0 -32 3 -39 20 -39 11 0 20 5 20 10 0 6 -4 10 -10 10 -5 0 -10 14 -10
30 0 20 5 30 15 30 8 0 15 5 15 10 0 6 -7 10 -15 10 -10 0 -15 10 -15 30 0 17
-4 30 -10 30 -5 0 -10 -13 -10 -29z"/>
<path d="M2628 2143 c-32 -8 -21 -33 13 -31 19 2 34 -2 36 -9 3 -8 -4 -13 -19
-13 -13 0 -34 -7 -46 -16 -40 -27 -22 -74 28 -74 14 0 31 5 38 12 9 9 12 9 12
0 0 -7 7 -12 15 -12 12 0 15 13 15 59 0 51 -3 62 -22 75 -22 16 -37 18 -70 9z
m50 -90 c-2 -10 -13 -19 -26 -21 -24 -4 -29 7 -10 26 18 18 40 15 36 -5z"/>
<path d="M2750 2090 c0 -5 5 -10 10 -10 6 0 10 -13 10 -30 0 -16 -4 -30 -10
-30 -5 0 -10 -4 -10 -10 0 -5 11 -10 25 -10 22 0 24 3 18 31 -4 21 -1 34 8 40
26 16 39 9 39 -21 0 -16 -4 -30 -10 -30 -5 0 -10 -4 -10 -10 0 -5 14 -10 30
-10 17 0 30 5 30 10 0 6 -4 10 -10 10 -5 0 -10 16 -10 35 0 40 -21 55 -51 36
-12 -7 -19 -7 -19 -1 0 5 -9 10 -20 10 -11 0 -20 -4 -20 -10z"/>
<path d="M2915 2083 c-32 -31 -6 -83 41 -83 35 0 29 -35 -6 -36 -30 0 -36 -16
-11 -26 11 -4 28 0 40 8 17 12 21 25 21 69 0 30 5 57 10 60 21 13 8 22 -35 23
-28 0 -51 -6 -60 -15z m60 -33 c0 -18 -6 -26 -21 -28 -26 -4 -40 24 -23 45 18
21 44 11 44 -17z"/>
<path d="M3137 2094 c-14 -14 -7 -43 13 -49 11 -3 20 -11 20 -17 0 -6 -9 -8
-20 -5 -13 3 -20 0 -20 -10 0 -10 9 -13 28 -11 35 4 45 46 13 55 -12 3 -21 10
-21 15 0 5 10 6 21 3 15 -5 20 -3 17 6 -5 15 -40 24 -51 13z"/>
<path d="M3316 2084 c-32 -31 -8 -84 38 -84 29 0 46 18 46 50 0 14 -5 31 -12
38 -17 17 -54 15 -72 -4z m59 -34 c0 -18 -6 -26 -23 -28 -27 -4 -40 22 -22 44
19 22 45 13 45 -16z"/>
<path d="M3425 2090 c-3 -5 -1 -10 4 -10 6 0 11 -13 11 -30 0 -16 -4 -30 -10
-30 -5 0 -10 -4 -10 -10 0 -5 14 -10 30 -10 17 0 30 5 30 10 0 6 -4 10 -10 10
-19 0 -10 39 12 54 12 9 19 19 15 22 -4 4 -13 1 -22 -6 -10 -8 -15 -9 -15 -1
0 14 -27 15 -35 1z"/>
<path d="M3536 2084 c-33 -32 -8 -84 40 -84 33 0 30 18 -3 23 l-28 4 33 14
c34 14 40 27 20 47 -17 17 -44 15 -62 -4z m44 -13 c0 -5 -9 -11 -19 -14 -14
-3 -18 -1 -14 9 6 15 33 19 33 5z"/>
</g>
</svg>
